# xmcd
#
# Track frame offsets:
#	150
#	14950
#	27637
#	40750
#	56862
#	73475
#	87412
#	101600
#	116012
#	131100
#	145737
#	159012
#	171975
#	186762
#	203437
#	216337
#
# Disc length: 3041 seconds
#
# Revision: 0
# Processed by: cddbd v1.5.2PL0 Copyright (c) Steve Scherf et al.
# Submitted via: dBpowerAMP V4.0
#
DISCID=f40bdf10
DTITLE=Nashville Session Singers - BOOT SCOOTERS
DYEAR=2003
DGENRE=Country
TTITLE0=1.Summertime Blues
TTITLE1=2.What The Cowgirls Do
TTITLE2=3.Down on The Farm
TTITLE3=4.American Honky Tonk Bar Association
TTITLE4=5.Walking Away A Winner
TTITLE5=6.Guitars And Cadillacs
TTITLE6=7.3rd Rock From The Sun
TTITLE7=8.Rock My World
TTITLE8=9.Before You Kill Us All
TTITLE9=10.Bubba Shot The Jukebox
TTITLE10=11.Lovebug
TTITLE11=12.Papa Loved Mama
TTITLE12=13.No Doubt About It
TTITLE13=14.Beer And Bones
TTITLE14=15.Down At Dumas Walkers
TTITLE15=16.The Whiskey Ain't Workin'
EXTD=
EXTT0=
EXTT1=
EXTT2=
EXTT3=
EXTT4=
EXTT5=
EXTT6=
EXTT7=
EXTT8=
EXTT9=
EXTT10=
EXTT11=
EXTT12=
EXTT13=
EXTT14=
EXTT15=
PLAYORDER=
